<?xml version="1.0" encoding="UTF-8"?>
<!DOCTYPE svg PUBLIC "-//W3C//DTD SVG 1.1//EN" "http://www.w3.org/Graphics/SVG/1.1/DTD/svg11.dtd">
<!-- Creator: CorelDRAW X7 -->
<svg xmlns="http://www.w3.org/2000/svg" xml:space="preserve" width="1.31189in" height="0.775606in" version="1.1" style="shape-rendering:geometricPrecision; text-rendering:geometricPrecision; image-rendering:optimizeQuality; fill-rule:evenodd; clip-rule:evenodd"
viewBox="0 0 1332 788"
 xmlns:xlink="http://www.w3.org/1999/xlink">
 <defs>
  <style type="text/css">
   <![CDATA[
    .str0 {stroke:#FFCB00;stroke-width:27.0784;stroke-linecap:round;stroke-linejoin:round}
    .fil0 {fill:#FFCB00;fill-rule:nonzero}
   ]]>
  </style>
 </defs>
 <g id="Layer_x0020_1">
  <metadata id="CorelCorpID_0Corel-Layer"/>
  <path class="fil0 str0" d="M252 384c-95,0 -171,-76 -171,-172 0,-94 76,-172 171,-172 49,0 95,21 128,59l13 -12c-35,-40 -87,-63 -141,-63 -105,0 -189,85 -189,188 0,105 84,189 189,189l0 -17zm7 -99c129,0 233,105 233,233 0,129 -104,232 -233,232 -111,0 -206,-77 -229,-185l-16 3c23,116 126,200 245,200 137,0 251,-112 251,-250 0,-139 -114,-251 -251,-251l0 18zm678 489c-209,0 -379,-170 -379,-379 0,-209 170,-381 379,-381 210,0 382,172 382,381 0,209 -172,379 -382,379zm0 -743c-200,0 -332,164 -332,364 0,200 132,362 332,362 200,0 335,-162 335,-362 0,-200 -135,-364 -335,-364z"/>
 </g>
</svg>
